<svg width="20" height="300" viewBox="0 0 20 300" fill="none" xmlns="http://www.w3.org/2000/svg">
<path d="M10.21 15C12.316 15 13.622 13.913 13.622 12.177C13.622 10.871 12.638 9.894 11.298 9.791V9.736C11.8112 9.65874 12.2798 9.40062 12.6194 9.00821C12.959 8.6158 13.1472 8.11495 13.15 7.596C13.15 6.086 11.988 5.136 10.136 5.136H5.84299V15H10.21ZM7.90799 6.674H9.60399C10.567 6.674 11.121 7.125 11.121 7.918C11.121 8.752 10.492 9.238 9.39099 9.238H7.90799V6.674ZM7.90799 13.462V10.598H9.63799C10.855 10.598 11.518 11.09 11.518 12.013C11.518 12.956 10.875 13.462 9.68599 13.462H7.90799Z" fill="black"/>
<path d="M9.99101 33.674L11.53 26.455C11.653 25.86 11.776 25.745 12.877 25.648L12.987 25.128H9.21101L9.10101 25.648C10.161 25.744 10.229 25.86 10.106 26.455L8.57001 33.674C8.44701 34.269 8.32401 34.384 7.22401 34.48L7.11401 35H10.888L10.998 34.48C9.93801 34.385 9.86801 34.269 9.99101 33.674Z" fill="black"/>
<path d="M6.71499 48.542L5.34299 49.914C4.78033 50.4767 4.46423 51.2398 4.46423 52.0355C4.46423 52.8312 4.78033 53.5943 5.34299 54.157C5.90564 54.7197 6.66877 55.0358 7.46449 55.0358C8.2602 55.0358 9.02333 54.7197 9.58599 54.157L11.414 52.328C11.7533 51.9887 12.0062 51.5729 12.1516 51.1155C12.2969 50.6582 12.3305 50.1727 12.2493 49.6997C12.1682 49.2268 11.9748 48.7802 11.6854 48.3974C11.396 48.0146 11.019 47.7069 10.586 47.5L9.99999 48.086C9.94048 48.1456 9.88874 48.2124 9.84599 48.285C10.1805 48.3812 10.4842 48.563 10.7269 48.8125C10.9696 49.0619 11.143 49.3704 11.23 49.7075C11.3169 50.0445 11.3144 50.3984 11.2227 50.7342C11.131 51.07 10.9532 51.376 10.707 51.622L8.87999 53.45C8.50471 53.8253 7.99572 54.0361 7.46499 54.0361C6.93426 54.0361 6.42527 53.8253 6.04999 53.45C5.67471 53.0747 5.46388 52.5657 5.46388 52.035C5.46388 51.5043 5.67471 50.9953 6.04999 50.62L6.84299 49.828C6.73079 49.4088 6.68756 48.9751 6.71499 48.542Z" fill="black"/>
<path d="M8.58599 46.672C8.24669 47.0113 7.99375 47.4271 7.8484 47.8845C7.70304 48.3418 7.66951 48.8273 7.75063 49.3003C7.83174 49.7732 8.02513 50.2198 8.31456 50.6026C8.60399 50.9854 8.98101 51.2931 9.41399 51.5L10.189 50.724C9.84994 50.6331 9.54079 50.4545 9.29262 50.2062C9.04445 49.9579 8.866 49.6487 8.7752 49.3096C8.6844 48.9705 8.68444 48.6135 8.77533 48.2744C8.86622 47.9354 9.04475 47.6262 9.29299 47.378L11.12 45.55C11.4953 45.1747 12.0043 44.9639 12.535 44.9639C13.0657 44.9639 13.5747 45.1747 13.95 45.55C14.3253 45.9253 14.5361 46.4343 14.5361 46.965C14.5361 47.4957 14.3253 48.0047 13.95 48.38L13.157 49.172C13.269 49.592 13.312 50.027 13.285 50.459L14.657 49.087C15.2196 48.5243 15.5357 47.7612 15.5357 46.9655C15.5357 46.1698 15.2196 45.4067 14.657 44.844C14.0943 44.2813 13.3312 43.9652 12.5355 43.9652C11.7398 43.9652 10.9766 44.2813 10.414 44.844L8.58599 46.672Z" fill="black"/>
<path d="M14 74C14.2652 74 14.5196 73.8946 14.7071 73.7071C14.8946 73.5196 15 73.2652 15 73V70.558C15 70.2928 14.8946 70.0384 14.7071 69.8509C14.5196 69.6634 14.2652 69.558 14 69.558H12.612C12.612 69.2067 12.6327 68.8553 12.674 68.504C12.736 68.132 12.8393 67.8013 12.984 67.512C13.1287 67.2227 13.315 66.995 13.543 66.829C13.7697 66.643 14.059 66.55 14.411 66.55V65C13.8323 65 13.3257 65.124 12.891 65.372C12.4593 65.6169 12.0885 65.956 11.806 66.364C11.5216 66.8131 11.3122 67.3056 11.186 67.822C11.0584 68.3917 10.996 68.9742 11 69.558V73C11 73.2652 11.1054 73.5196 11.2929 73.7071C11.4804 73.8946 11.7348 74 12 74H14ZM8 74C8.26522 74 8.51957 73.8946 8.70711 73.7071C8.89464 73.5196 9 73.2652 9 73V70.558C9 70.2928 8.89464 70.0384 8.70711 69.8509C8.51957 69.6634 8.26522 69.558 8 69.558H6.612C6.612 69.2067 6.63267 68.8553 6.674 68.504C6.73667 68.132 6.84 67.8013 6.984 67.512C7.12867 67.2227 7.315 66.995 7.543 66.829C7.76967 66.643 8.059 66.55 8.411 66.55V65C7.83233 65 7.32567 65.124 6.891 65.372C6.45934 65.6169 6.08847 65.956 5.806 66.364C5.52161 66.8131 5.31221 67.3056 5.186 67.822C5.05838 68.3917 4.99598 68.9742 5 69.558V73C5 73.2652 5.10536 73.5196 5.29289 73.7071C5.48043 73.8946 5.73478 74 6 74H8Z" fill="black"/>
<path d="M12.478 83.647C12.4973 83.5842 12.5041 83.5183 12.4979 83.4529C12.4917 83.3875 12.4727 83.324 12.442 83.2659C12.4112 83.2079 12.3693 83.1565 12.3187 83.1146C12.2681 83.0728 12.2098 83.0413 12.147 83.022C12.0842 83.0027 12.0183 82.9959 11.9529 83.0021C11.8875 83.0083 11.824 83.0273 11.766 83.0581C11.7079 83.0888 11.6565 83.1307 11.6146 83.1813C11.5728 83.2319 11.5413 83.2902 11.522 83.353L7.52201 96.353C7.48302 96.4798 7.49599 96.6168 7.55807 96.7341C7.62014 96.8513 7.72624 96.939 7.85301 96.978C7.97978 97.017 8.11685 97.004 8.23406 96.9419C8.35127 96.8799 8.43902 96.7738 8.47801 96.647L12.478 83.647ZM6.85401 86.146C6.90057 86.1924 6.93751 86.2476 6.96272 86.3084C6.98793 86.3691 7.0009 86.4342 7.0009 86.5C7.0009 86.5658 6.98793 86.6309 6.96272 86.6916C6.93751 86.7524 6.90057 86.8076 6.85401 86.854L3.70701 90L6.85401 93.146C6.9479 93.2399 7.00064 93.3672 7.00064 93.5C7.00064 93.6328 6.9479 93.7601 6.85401 93.854C6.76012 93.9479 6.63278 94.0006 6.50001 94.0006C6.36723 94.0006 6.2399 93.9479 6.14601 93.854L2.64601 90.354C2.59945 90.3076 2.5625 90.2524 2.5373 90.1916C2.51209 90.1309 2.49911 90.0658 2.49911 90C2.49911 89.9342 2.51209 89.8691 2.5373 89.8084C2.5625 89.7476 2.59945 89.6924 2.64601 89.646L6.14601 86.146C6.19245 86.0994 6.24763 86.0625 6.30838 86.0373C6.36912 86.0121 6.43424 85.9991 6.50001 85.9991C6.56578 85.9991 6.6309 86.0121 6.69164 86.0373C6.75239 86.0625 6.80756 86.0994 6.85401 86.146ZM13.146 86.146C13.0994 86.1924 13.0625 86.2476 13.0373 86.3084C13.0121 86.3691 12.9991 86.4342 12.9991 86.5C12.9991 86.5658 13.0121 86.6309 13.0373 86.6916C13.0625 86.7524 13.0994 86.8076 13.146 86.854L16.293 90L13.146 93.146C13.0995 93.1925 13.0626 93.2477 13.0375 93.3084C13.0123 93.3692 12.9994 93.4343 12.9994 93.5C12.9994 93.5657 13.0123 93.6308 13.0375 93.6916C13.0626 93.7523 13.0995 93.8075 13.146 93.854C13.1925 93.9005 13.2477 93.9374 13.3084 93.9625C13.3692 93.9877 13.4343 94.0006 13.5 94.0006C13.5658 94.0006 13.6309 93.9877 13.6916 93.9625C13.7523 93.9374 13.8075 93.9005 13.854 93.854L17.354 90.354C17.4006 90.3076 17.4375 90.2524 17.4627 90.1916C17.4879 90.1309 17.5009 90.0658 17.5009 90C17.5009 89.9342 17.4879 89.8691 17.4627 89.8084C17.4375 89.7476 17.4006 89.6924 17.354 89.646L13.854 86.146C13.8076 86.0994 13.7524 86.0625 13.6916 86.0373C13.6309 86.0121 13.5658 85.9991 13.5 85.9991C13.4342 85.9991 13.3691 86.0121 13.3084 86.0373C13.2476 86.0625 13.1925 86.0994 13.146 86.146Z" fill="black"/>
<g clip-path="url(#clip0_201_72)">
<path d="M8.00201 107.5C8.00201 107.898 7.84398 108.279 7.56267 108.561C7.28137 108.842 6.89984 109 6.50201 109C6.10419 109 5.72266 108.842 5.44135 108.561C5.16005 108.279 5.00201 107.898 5.00201 107.5C5.00201 107.102 5.16005 106.721 5.44135 106.439C5.72266 106.158 6.10419 106 6.50201 106C6.89984 106 7.28137 106.158 7.56267 106.439C7.84398 106.721 8.00201 107.102 8.00201 107.5Z" fill="black"/>
<path d="M4.00201 103C3.47158 103 2.96287 103.211 2.5878 103.586C2.21273 103.961 2.00201 104.47 2.00201 105V115C2.00201 115.53 2.21273 116.039 2.5878 116.414C2.96287 116.789 3.47158 117 4.00201 117H16.002C16.5324 117 17.0412 116.789 17.4162 116.414C17.7913 116.039 18.002 115.53 18.002 115V105C18.002 104.47 17.7913 103.961 17.4162 103.586C17.0412 103.211 16.5324 103 16.002 103H4.00201ZM16.002 104C16.2672 104 16.5216 104.105 16.7091 104.293C16.8967 104.48 17.002 104.735 17.002 105V111.5L13.225 109.553C13.1312 109.506 13.0251 109.49 12.9215 109.506C12.818 109.523 12.7223 109.572 12.648 109.646L8.93801 113.356L6.27801 111.584C6.18197 111.52 6.06678 111.491 5.95195 111.503C5.83713 111.514 5.72975 111.565 5.64801 111.646L3.00201 114V105C3.00201 104.735 3.10737 104.48 3.29491 104.293C3.48244 104.105 3.7368 104 4.00201 104H16.002Z" fill="black"/>
</g>
<path fill-rule="evenodd" clip-rule="evenodd" d="M7 133.5C7 133.367 7.05268 133.24 7.14645 133.146C7.24021 133.053 7.36739 133 7.5 133H16.5C16.6326 133 16.7598 133.053 16.8536 133.146C16.9473 133.24 17 133.367 17 133.5C17 133.633 16.9473 133.76 16.8536 133.854C16.7598 133.947 16.6326 134 16.5 134H7.5C7.36739 134 7.24021 133.947 7.14645 133.854C7.05268 133.76 7 133.633 7 133.5ZM7 129.5C7 129.367 7.05268 129.24 7.14645 129.146C7.24021 129.053 7.36739 129 7.5 129H16.5C16.6326 129 16.7598 129.053 16.8536 129.146C16.9473 129.24 17 129.367 17 129.5C17 129.633 16.9473 129.76 16.8536 129.854C16.7598 129.947 16.6326 130 16.5 130H7.5C7.36739 130 7.24021 129.947 7.14645 129.854C7.05268 129.76 7 129.633 7 129.5ZM7 125.5C7 125.367 7.05268 125.24 7.14645 125.146C7.24021 125.053 7.36739 125 7.5 125H16.5C16.6326 125 16.7598 125.053 16.8536 125.146C16.9473 125.24 17 125.367 17 125.5C17 125.633 16.9473 125.76 16.8536 125.854C16.7598 125.947 16.6326 126 16.5 126H7.5C7.36739 126 7.24021 125.947 7.14645 125.854C7.05268 125.76 7 125.633 7 125.5Z" fill="black"/>
<path d="M3.713 133.865V133.391H4C4.217 133.391 4.363 133.254 4.363 133.074C4.363 132.889 4.205 132.764 4.002 132.764C3.779 132.764 3.635 132.916 3.629 133.074H3.039C3.055 132.607 3.412 132.287 4.025 132.287C4.613 132.285 4.979 132.578 4.982 132.99C4.98389 133.131 4.93543 133.269 4.84528 133.378C4.75513 133.486 4.62919 133.56 4.49 133.584V133.617C4.64781 133.629 4.79501 133.701 4.90098 133.818C5.00696 133.936 5.06356 134.09 5.059 134.248C5.062 134.781 4.557 135.048 4.008 135.048C3.352 135.048 3.008 134.678 3 134.254H3.582C3.59 134.432 3.768 134.56 4.004 134.563C4.258 134.563 4.428 134.418 4.426 134.213C4.424 134.018 4.271 133.865 4.012 133.865H3.712H3.713ZM3.709 129.166H3.105V129.131C3.105 128.723 3.4 128.287 4.063 128.287C4.646 128.287 5.023 128.613 5.023 129.043C5.023 129.432 4.766 129.66 4.547 129.891L4.01 130.463V130.493H5.064V131H3.143V130.605L4.1 129.615C4.238 129.473 4.393 129.311 4.393 129.107C4.393 128.927 4.246 128.787 4.051 128.787C4.00598 128.785 3.9611 128.793 3.91913 128.809C3.87715 128.826 3.83897 128.85 3.80693 128.882C3.77489 128.914 3.74967 128.952 3.73283 128.993C3.71599 129.035 3.70788 129.08 3.709 129.125V129.166ZM4.564 127H3.929V124.924H3.898L3.3 125.344V124.777L3.929 124.334H4.564V127Z" fill="black"/>
<path fill-rule="evenodd" clip-rule="evenodd" d="M7 153.5C7 153.367 7.05268 153.24 7.14645 153.146C7.24021 153.053 7.36739 153 7.5 153H16.5C16.6326 153 16.7598 153.053 16.8536 153.146C16.9473 153.24 17 153.367 17 153.5C17 153.633 16.9473 153.76 16.8536 153.854C16.7598 153.947 16.6326 154 16.5 154H7.5C7.36739 154 7.24021 153.947 7.14645 153.854C7.05268 153.76 7 153.633 7 153.5ZM7 149.5C7 149.367 7.05268 149.24 7.14645 149.146C7.24021 149.053 7.36739 149 7.5 149H16.5C16.6326 149 16.7598 149.053 16.8536 149.146C16.9473 149.24 17 149.367 17 149.5C17 149.633 16.9473 149.76 16.8536 149.854C16.7598 149.947 16.6326 150 16.5 150H7.5C7.36739 150 7.24021 149.947 7.14645 149.854C7.05268 149.76 7 149.633 7 149.5ZM7 145.5C7 145.367 7.05268 145.24 7.14645 145.146C7.24021 145.053 7.36739 145 7.5 145H16.5C16.6326 145 16.7598 145.053 16.8536 145.146C16.9473 145.24 17 145.367 17 145.5C17 145.633 16.9473 145.76 16.8536 145.854C16.7598 145.947 16.6326 146 16.5 146H7.5C7.36739 146 7.24021 145.947 7.14645 145.854C7.05268 145.76 7 145.633 7 145.5ZM4 146.5C4.26522 146.5 4.51957 146.395 4.70711 146.207C4.89464 146.02 5 145.765 5 145.5C5 145.235 4.89464 144.98 4.70711 144.793C4.51957 144.605 4.26522 144.5 4 144.5C3.73478 144.5 3.48043 144.605 3.29289 144.793C3.10536 144.98 3 145.235 3 145.5C3 145.765 3.10536 146.02 3.29289 146.207C3.48043 146.395 3.73478 146.5 4 146.5ZM4 150.5C4.26522 150.5 4.51957 150.395 4.70711 150.207C4.89464 150.02 5 149.765 5 149.5C5 149.235 4.89464 148.98 4.70711 148.793C4.51957 148.605 4.26522 148.5 4 148.5C3.73478 148.5 3.48043 148.605 3.29289 148.793C3.10536 148.98 3 149.235 3 149.5C3 149.765 3.10536 150.02 3.29289 150.207C3.48043 150.395 3.73478 150.5 4 150.5ZM4 154.5C4.26522 154.5 4.51957 154.395 4.70711 154.207C4.89464 154.02 5 153.765 5 153.5C5 153.235 4.89464 152.98 4.70711 152.793C4.51957 152.605 4.26522 152.5 4 152.5C3.73478 152.5 3.48043 152.605 3.29289 152.793C3.10536 152.98 3 153.235 3 153.5C3 153.765 3.10536 154.02 3.29289 154.207C3.48043 154.395 3.73478 154.5 4 154.5Z" fill="black"/>
<path d="M9.495 175V165.201H8.174V169.351H3.32V165.2H2V175H3.32V170.513H8.174V175H9.495ZM12.669 167.929V167.879C12.669 166.945 13.329 166.127 14.47 166.127C15.475 166.127 16.23 166.766 16.23 167.778C16.23 168.676 15.648 169.358 15.11 169.968L11.42 174.168V175H17.751V173.851H13.293V173.772L15.9 170.786C16.819 169.738 17.566 168.912 17.566 167.685C17.565 166.149 16.35 165 14.499 165C12.46 165 11.384 166.393 11.384 167.879V167.929H12.669Z" fill="black"/>
<g clip-path="url(#clip1_201_72)">
<path fill-rule="evenodd" clip-rule="evenodd" d="M4 190C4 189.867 4.05268 189.74 4.14645 189.646C4.24021 189.553 4.36739 189.5 4.5 189.5H15.5C15.6326 189.5 15.7598 189.553 15.8536 189.646C15.9473 189.74 16 189.867 16 190C16 190.133 15.9473 190.26 15.8536 190.354C15.7598 190.447 15.6326 190.5 15.5 190.5H4.5C4.36739 190.5 4.24021 190.447 4.14645 190.354C4.05268 190.26 4 190.133 4 190Z" fill="black"/>
<path d="M14 185H6C5.73478 185 5.48043 185.105 5.29289 185.293C5.10536 185.48 5 185.735 5 186V188.5H4V186C4 185.47 4.21071 184.961 4.58579 184.586C4.96086 184.211 5.46957 184 6 184H14C14.5304 184 15.0391 184.211 15.4142 184.586C15.7893 184.961 16 185.47 16 186V188.5H15V186C15 185.735 14.8946 185.48 14.7071 185.293C14.5196 185.105 14.2652 185 14 185ZM4 191.5H5V194C5 194.265 5.10536 194.52 5.29289 194.707C5.48043 194.895 5.73478 195 6 195H14C14.2652 195 14.5196 194.895 14.7071 194.707C14.8946 194.52 15 194.265 15 194V191.5H16V194C16 194.53 15.7893 195.039 15.4142 195.414C15.0391 195.789 14.5304 196 14 196H6C5.46957 196 4.96086 195.789 4.58579 195.414C4.21071 195.039 4 194.53 4 194V191.5ZM2.5 189.5C2.36739 189.5 2.24021 189.553 2.14645 189.646C2.05268 189.74 2 189.867 2 190C2 190.133 2.05268 190.26 2.14645 190.354C2.24021 190.447 2.36739 190.5 2.5 190.5H17.5C17.6326 190.5 17.7598 190.447 17.8536 190.354C17.9473 190.26 18 190.133 18 190C18 189.867 17.9473 189.74 17.8536 189.646C17.7598 189.553 17.6326 189.5 17.5 189.5H2.5Z" fill="black"/>
</g>
<g clip-path="url(#clip2_201_72)">
<path d="M2 212.5C2 212.367 2.05268 212.24 2.14645 212.146C2.24021 212.053 2.36739 212 2.5 212H17.5C17.6326 212 17.7598 212.053 17.8536 212.146C17.9473 212.24 18 212.367 18 212.5C18 212.633 17.9473 212.76 17.8536 212.854C17.7598 212.947 17.6326 213 17.5 213H2.5C2.36739 213 2.24021 212.947 2.14645 212.854C2.05268 212.76 2 212.633 2 212.5ZM14 202H6C5.46957 202 4.96086 202.211 4.58579 202.586C4.21071 202.961 4 203.47 4 204V211H5V204C5 203.735 5.10536 203.48 5.29289 203.293C5.48043 203.105 5.73478 203 6 203H14C14.2652 203 14.5196 203.105 14.7071 203.293C14.8946 203.48 15 203.735 15 204V211H16V204C16 203.47 15.7893 202.961 15.4142 202.586C15.0391 202.211 14.5304 202 14 202ZM16 214H15V216C15 216.265 14.8946 216.52 14.7071 216.707C14.5196 216.895 14.2652 217 14 217H6C5.73478 217 5.48043 216.895 5.29289 216.707C5.10536 216.52 5 216.265 5 216V214H4V216C4 216.53 4.21071 217.039 4.58579 217.414C4.96086 217.789 5.46957 218 6 218H14C14.5304 218 15.0391 217.789 15.4142 217.414C15.7893 217.039 16 216.53 16 216V214Z" fill="black"/>
</g>
<path fill-rule="evenodd" clip-rule="evenodd" d="M9.99999 225C11.0806 225 12.1321 225.351 12.9968 225.999C13.8615 226.647 14.493 227.558 14.7966 228.595C15.1003 229.632 15.0597 230.74 14.6811 231.752C14.3025 232.764 13.6061 233.626 12.6963 234.209C11.7865 234.793 10.7123 235.065 9.63453 234.987C8.55674 234.908 7.53342 234.483 6.71783 233.774C5.90225 233.065 5.3383 232.111 5.11046 231.054C4.88261 229.998 5.00314 228.896 5.45399 227.914C5.50306 227.795 5.50405 227.661 5.45674 227.541C5.40944 227.421 5.31751 227.323 5.20019 227.27C5.08288 227.216 4.94927 227.209 4.82733 227.252C4.7054 227.294 4.60458 227.382 4.54599 227.497C4.005 228.676 3.86042 229.998 4.13392 231.265C4.40741 232.533 5.08426 233.678 6.06306 234.529C7.04187 235.379 8.26995 235.89 9.56334 235.984C10.8567 236.078 12.1458 235.751 13.2375 235.051C14.3292 234.351 15.1647 233.316 15.6189 232.101C16.0731 230.887 16.1216 229.558 15.757 228.313C15.3924 227.069 14.6344 225.976 13.5965 225.198C12.5586 224.421 11.2968 224 9.99999 224V225Z" fill="black"/>
<path d="M9.99999 226.466V222.534C9.99998 222.486 9.98642 222.44 9.96093 222.4C9.93543 222.36 9.89904 222.328 9.85602 222.308C9.813 222.288 9.76513 222.28 9.71801 222.286C9.6709 222.292 9.62649 222.312 9.58999 222.342L7.22999 224.308C7.20186 224.331 7.17922 224.361 7.16369 224.394C7.14816 224.427 7.14011 224.463 7.14011 224.5C7.14011 224.537 7.14816 224.573 7.16369 224.606C7.17922 224.639 7.20186 224.669 7.22999 224.692L9.58999 226.658C9.62649 226.688 9.6709 226.708 9.71801 226.714C9.76513 226.72 9.813 226.712 9.85602 226.692C9.89904 226.672 9.93543 226.64 9.96093 226.6C9.98642 226.56 9.99998 226.513 9.99999 226.466Z" fill="black"/>
<path fill-rule="evenodd" clip-rule="evenodd" d="M9.99999 245C8.91934 245 7.86792 245.351 7.00319 245.999C6.13847 246.647 5.507 247.558 5.20335 248.595C4.89971 249.632 4.94024 250.74 5.31887 251.752C5.69751 252.764 6.39387 253.626 7.30365 254.209C8.21343 254.793 9.28766 255.065 10.3654 254.987C11.4432 254.908 12.4666 254.483 13.2821 253.774C14.0977 253.065 14.6617 252.111 14.8895 251.054C15.1174 249.998 14.9968 248.896 14.546 247.914C14.4969 247.795 14.4959 247.661 14.5432 247.541C14.5905 247.421 14.6825 247.323 14.7998 247.27C14.9171 247.216 15.0507 247.209 15.1726 247.252C15.2946 247.294 15.3954 247.382 15.454 247.497C15.995 248.676 16.1396 249.998 15.8661 251.265C15.5926 252.533 14.9157 253.678 13.9369 254.529C12.9581 255.379 11.73 255.89 10.4366 255.984C9.14323 256.078 7.85414 255.751 6.76246 255.051C5.67077 254.351 4.83525 253.316 4.38105 252.101C3.92685 250.887 3.87842 249.558 4.24302 248.313C4.60762 247.069 5.36562 245.976 6.40347 245.198C7.44133 244.421 8.70317 244 9.99999 244V245Z" fill="black"/>
<path d="M10 246.466V242.534C10 242.486 10.0136 242.44 10.0391 242.4C10.0646 242.36 10.101 242.328 10.144 242.308C10.187 242.288 10.2349 242.28 10.282 242.286C10.3291 242.292 10.3735 242.312 10.41 242.342L12.77 244.308C12.89 244.408 12.89 244.592 12.77 244.692L10.41 246.658C10.3735 246.688 10.3291 246.708 10.282 246.714C10.2349 246.72 10.187 246.712 10.144 246.692C10.101 246.672 10.0646 246.64 10.0391 246.6C10.0136 246.56 10 246.513 10 246.466Z" fill="black"/>
<g clip-path="url(#clip3_201_72)">
<path d="M3.5 263C3.36739 263 3.24021 263.053 3.14645 263.146C3.05268 263.24 3 263.367 3 263.5V267.5C3 267.633 2.94732 267.76 2.85355 267.854C2.75979 267.947 2.63261 268 2.5 268C2.36739 268 2.24021 267.947 2.14645 267.854C2.05268 267.76 2 267.633 2 267.5V263.5C2 263.102 2.15804 262.721 2.43934 262.439C2.72064 262.158 3.10218 262 3.5 262H7.5C7.63261 262 7.75979 262.053 7.85355 262.146C7.94732 262.24 8 262.367 8 262.5C8 262.633 7.94732 262.76 7.85355 262.854C7.75979 262.947 7.63261 263 7.5 263H3.5ZM12 262.5C12 262.367 12.0527 262.24 12.1464 262.146C12.2402 262.053 12.3674 262 12.5 262H16.5C16.8978 262 17.2794 262.158 17.5607 262.439C17.842 262.721 18 263.102 18 263.5V267.5C18 267.633 17.9473 267.76 17.8536 267.854C17.7598 267.947 17.6326 268 17.5 268C17.3674 268 17.2402 267.947 17.1464 267.854C17.0527 267.76 17 267.633 17 267.5V263.5C17 263.367 16.9473 263.24 16.8536 263.146C16.7598 263.053 16.6326 263 16.5 263H12.5C12.3674 263 12.2402 262.947 12.1464 262.854C12.0527 262.76 12 262.633 12 262.5ZM2.5 272C2.63261 272 2.75979 272.053 2.85355 272.146C2.94732 272.24 3 272.367 3 272.5V276.5C3 276.633 3.05268 276.76 3.14645 276.854C3.24021 276.947 3.36739 277 3.5 277H7.5C7.63261 277 7.75979 277.053 7.85355 277.146C7.94732 277.24 8 277.367 8 277.5C8 277.633 7.94732 277.76 7.85355 277.854C7.75979 277.947 7.63261 278 7.5 278H3.5C3.10218 278 2.72064 277.842 2.43934 277.561C2.15804 277.279 2 276.898 2 276.5V272.5C2 272.367 2.05268 272.24 2.14645 272.146C2.24021 272.053 2.36739 272 2.5 272ZM17.5 272C17.6326 272 17.7598 272.053 17.8536 272.146C17.9473 272.24 18 272.367 18 272.5V276.5C18 276.898 17.842 277.279 17.5607 277.561C17.2794 277.842 16.8978 278 16.5 278H12.5C12.3674 278 12.2402 277.947 12.1464 277.854C12.0527 277.76 12 277.633 12 277.5C12 277.367 12.0527 277.24 12.1464 277.146C12.2402 277.053 12.3674 277 12.5 277H16.5C16.6326 277 16.7598 276.947 16.8536 276.854C16.9473 276.76 17 276.633 17 276.5V272.5C17 272.367 17.0527 272.24 17.1464 272.146C17.2402 272.053 17.3674 272 17.5 272Z" fill="black"/>
</g>
<g clip-path="url(#clip4_201_72)">
<path d="M7.5 282C7.63261 282 7.75979 282.053 7.85355 282.146C7.94732 282.24 8 282.367 8 282.5V286.5C8 286.898 7.84196 287.279 7.56066 287.561C7.27936 287.842 6.89782 288 6.5 288H2.5C2.36739 288 2.24021 287.947 2.14645 287.854C2.05268 287.76 2 287.633 2 287.5C2 287.367 2.05268 287.24 2.14645 287.146C2.24021 287.053 2.36739 287 2.5 287H6.5C6.63261 287 6.75979 286.947 6.85355 286.854C6.94732 286.76 7 286.633 7 286.5V282.5C7 282.367 7.05268 282.24 7.14645 282.146C7.24021 282.053 7.36739 282 7.5 282ZM12.5 282C12.6326 282 12.7598 282.053 12.8536 282.146C12.9473 282.24 13 282.367 13 282.5V286.5C13 286.633 13.0527 286.76 13.1464 286.854C13.2402 286.947 13.3674 287 13.5 287H17.5C17.6326 287 17.7598 287.053 17.8536 287.146C17.9473 287.24 18 287.367 18 287.5C18 287.633 17.9473 287.76 17.8536 287.854C17.7598 287.947 17.6326 288 17.5 288H13.5C13.1022 288 12.7206 287.842 12.4393 287.561C12.158 287.279 12 286.898 12 286.5V282.5C12 282.367 12.0527 282.24 12.1464 282.146C12.2402 282.053 12.3674 282 12.5 282ZM2 292.5C2 292.367 2.05268 292.24 2.14645 292.146C2.24021 292.053 2.36739 292 2.5 292H6.5C6.89782 292 7.27936 292.158 7.56066 292.439C7.84196 292.721 8 293.102 8 293.5V297.5C8 297.633 7.94732 297.76 7.85355 297.854C7.75979 297.947 7.63261 298 7.5 298C7.36739 298 7.24021 297.947 7.14645 297.854C7.05268 297.76 7 297.633 7 297.5V293.5C7 293.367 6.94732 293.24 6.85355 293.146C6.75979 293.053 6.63261 293 6.5 293H2.5C2.36739 293 2.24021 292.947 2.14645 292.854C2.05268 292.76 2 292.633 2 292.5ZM12 293.5C12 293.102 12.158 292.721 12.4393 292.439C12.7206 292.158 13.1022 292 13.5 292H17.5C17.6326 292 17.7598 292.053 17.8536 292.146C17.9473 292.24 18 292.367 18 292.5C18 292.633 17.9473 292.76 17.8536 292.854C17.7598 292.947 17.6326 293 17.5 293H13.5C13.3674 293 13.2402 293.053 13.1464 293.146C13.0527 293.24 13 293.367 13 293.5V297.5C13 297.633 12.9473 297.76 12.8536 297.854C12.7598 297.947 12.6326 298 12.5 298C12.3674 298 12.2402 297.947 12.1464 297.854C12.0527 297.76 12 297.633 12 297.5V293.5Z" fill="black"/>
</g>
<defs>
<clipPath id="clip0_201_72">
<rect width="16" height="16" fill="white" transform="translate(2 102)"/>
</clipPath>
<clipPath id="clip1_201_72">
<rect width="16" height="16" fill="white" transform="translate(2 182)"/>
</clipPath>
<clipPath id="clip2_201_72">
<rect width="16" height="16" fill="white" transform="translate(2 202)"/>
</clipPath>
<clipPath id="clip3_201_72">
<rect width="16" height="16" fill="white" transform="translate(2 262)"/>
</clipPath>
<clipPath id="clip4_201_72">
<rect width="16" height="16" fill="white" transform="translate(2 282)"/>
</clipPath>
</defs>
</svg>
