<?xml version="1.0" standalone="no"?><!DOCTYPE svg PUBLIC "-//W3C//DTD SVG 1.1//EN" "http://www.w3.org/Graphics/SVG/1.1/DTD/svg11.dtd"><svg t="1760443341745" class="icon" viewBox="0 0 1024 1024" version="1.1" xmlns="http://www.w3.org/2000/svg" p-id="2502" xmlns:xlink="http://www.w3.org/1999/xlink" width="64" height="64"><path d="M64 360V112c0-26.6 21.4-48 48-48h248c13.2 0 24 10.8 24 24v80c0 13.2-10.8 24-24 24H192v168c0 13.2-10.8 24-24 24H88c-13.2 0-24-10.8-24-24zM640 88v80c0 13.2 10.8 24 24 24h168v168c0 13.2 10.8 24 24 24h80c13.2 0 24-10.8 24-24V112c0-26.6-21.4-48-48-48H664c-13.2 0-24 10.8-24 24z m296 552h-80c-13.2 0-24 10.8-24 24v168h-168c-13.2 0-24 10.8-24 24v80c0 13.2 10.8 24 24 24h248c26.6 0 48-21.4 48-48V664c0-13.2-10.8-24-24-24zM384 936v-80c0-13.2-10.8-24-24-24H192v-168c0-13.2-10.8-24-24-24H88c-13.2 0-24 10.8-24 24v248c0 26.6 21.4 48 48 48h248c13.2 0 24-10.8 24-24z" p-id="2503" fill="#dbdbdb"></path></svg>