<?xml version="1.0" standalone="no"?><!DOCTYPE svg PUBLIC "-//W3C//DTD SVG 1.1//EN" "http://www.w3.org/Graphics/SVG/1.1/DTD/svg11.dtd"><svg t="1760443322524" class="icon" viewBox="0 0 1024 1024" version="1.1" xmlns="http://www.w3.org/2000/svg" p-id="1478" xmlns:xlink="http://www.w3.org/1999/xlink" width="64" height="64"><path d="M554.666667 405.333333V128a42.666667 42.666667 0 1 1 85.333333 0v256h256a42.666667 42.666667 0 1 1 0 85.333333H618.581333A63.914667 63.914667 0 0 1 554.666667 405.333333zM85.333333 597.333333a42.666667 42.666667 0 0 1 42.666667-42.666666h277.418667A63.914667 63.914667 0 0 1 469.333333 618.666667v277.333333a42.666667 42.666667 0 1 1-85.333333 0V640H128a42.666667 42.666667 0 0 1-42.666667-42.666667z" fill="#e6e6e6" p-id="1479"></path></svg>