<svg width="16" height="240" viewBox="0 0 16 240" fill="none" xmlns="http://www.w3.org/2000/svg">
<path d="M7 4C6.45 4 6 4.45 6 5H5C4.45 5 4 5.45 4 6H11C11 5.45 10.55 5 10 5H9C9 4.45 8.55 4 8 4H7ZM5 7V11.81C5 11.92 5.08 12 5.19 12H9.82C9.93 12 10.01 11.92 10.01 11.81V7H9.01V10.5C9.01 10.78 8.79 11 8.51 11C8.23 11 8.01 10.78 8.01 10.5V7H7.01V10.5C7.01 10.78 6.79 11 6.51 11C6.23 11 6.01 10.78 6.01 10.5V7H5.01H5Z" fill="#DC3545"/>
<g clip-path="url(#clip0_205_79)">
<path d="M10 20L9 21L11 23L12 22L10 20ZM8 22L4 26V28H6L10 24L8 22Z" fill="#007FA3"/>
</g>
<g clip-path="url(#clip1_205_79)">
<path d="M4 36V44H12V42H11V43H5V37H6V36H4ZM8 36L9.5 37.5L7 40L8 41L10.5 38.5L12 40V36H8Z" fill="#6C757D"/>
</g>
<g clip-path="url(#clip2_205_79)">
<path d="M8.5 52C7.29 52 6.23 52.86 6 54C4.9 54 4 54.9 4 56C4 56.37 4.11 56.71 4.28 57H6.5L8.5 55L10.5 57H11.91C11.97 56.84 12 56.68 12 56.5C12 55.85 11.58 55.21 11 55V54.5C11 54.1717 10.9353 53.8466 10.8097 53.5433C10.6841 53.24 10.4999 52.9644 10.2678 52.7322C10.0356 52.5001 9.76002 52.3159 9.45671 52.1903C9.15339 52.0647 8.8283 52 8.5 52ZM8.5 56.5L6 59H8V59.5C8 59.6326 8.05268 59.7598 8.14645 59.8536C8.24021 59.9473 8.36739 60 8.5 60C8.63261 60 8.75979 59.9473 8.85355 59.8536C8.94732 59.7598 9 59.6326 9 59.5V59H11L8.5 56.5Z" fill="#6C757D"/>
</g>
<g clip-path="url(#clip3_205_79)">
<path d="M8.5 68C7.29 68 6.23 68.86 6 70C4.9 70 4 70.9 4 72C4 72.37 4.11 72.71 4.28 73H6.5L8.5 71L10.5 73H11.91C11.97 72.84 12 72.68 12 72.5C12 71.85 11.58 71.21 11 71V70.5C11 70.1717 10.9353 69.8466 10.8097 69.5433C10.6841 69.24 10.4999 68.9644 10.2678 68.7322C10.0356 68.5001 9.76002 68.3159 9.45671 68.1903C9.15339 68.0647 8.8283 68 8.5 68ZM8.5 72.5L6 75H8V75.5C8 75.6326 8.05268 75.7598 8.14645 75.8536C8.24021 75.9473 8.36739 76 8.5 76C8.63261 76 8.75979 75.9473 8.85355 75.8536C8.94732 75.7598 9 75.6326 9 75.5V75H11L8.5 72.5Z" fill="#007FA3"/>
</g>
<defs>
<clipPath id="clip0_205_79">
<rect width="8" height="8" fill="white" transform="translate(4 20)"/>
</clipPath>
<clipPath id="clip1_205_79">
<rect width="8" height="8" fill="white" transform="translate(4 36)"/>
</clipPath>
<clipPath id="clip2_205_79">
<rect width="8" height="8" fill="white" transform="translate(4 52)"/>
</clipPath>
<clipPath id="clip3_205_79">
<rect width="8" height="8" fill="white" transform="translate(4 68)"/>
</clipPath>
</defs>
</svg>
