<svg width="400" height="225" viewBox="0 0 400 225" fill="none" xmlns="http://www.w3.org/2000/svg">
<rect width="400" height="225" fill="black" fill-opacity="0.05"/>
<g clip-path="url(#clip0_211_193)">
<path d="M188.012 97C188.012 99.3869 187.064 101.676 185.376 103.364C183.688 105.052 181.399 106 179.012 106C176.625 106 174.336 105.052 172.648 103.364C170.96 101.676 170.012 99.3869 170.012 97C170.012 94.6131 170.96 92.3239 172.648 90.636C174.336 88.9482 176.625 88 179.012 88C181.399 88 183.688 88.9482 185.376 90.636C187.064 92.3239 188.012 94.6131 188.012 97Z" fill="black" fill-opacity="0.15"/>
<path d="M164.012 70C160.829 70 157.777 71.2643 155.527 73.5147C153.276 75.7652 152.012 78.8174 152.012 82V142C152.012 145.183 153.276 148.235 155.527 150.485C157.777 152.736 160.829 154 164.012 154H236.012C239.195 154 242.247 152.736 244.497 150.485C246.748 148.235 248.012 145.183 248.012 142V82C248.012 78.8174 246.748 75.7652 244.497 73.5147C242.247 71.2643 239.195 70 236.012 70H164.012ZM236.012 76C237.603 76 239.129 76.6321 240.255 77.7574C241.38 78.8826 242.012 80.4087 242.012 82V121L219.35 109.318C218.787 109.036 218.15 108.938 217.529 109.039C216.908 109.139 216.334 109.432 215.888 109.876L193.628 132.136L177.668 121.504C177.092 121.12 176.401 120.948 175.712 121.016C175.023 121.083 174.378 121.387 173.888 121.876L158.012 136V82C158.012 80.4087 158.644 78.8826 159.769 77.7574C160.895 76.6321 162.421 76 164.012 76H236.012Z" fill="black" fill-opacity="0.15"/>
</g>
<defs>
<clipPath id="clip0_211_193">
<rect width="96" height="96" fill="white" transform="translate(152 64)"/>
</clipPath>
</defs>
</svg>
